<?xml version="1.0" encoding="utf-8"?>
<!-- Generator: Adobe Illustrator 16.0.0, SVG Export Plug-In . SVG Version: 6.00 Build 0)  -->
<!DOCTYPE svg PUBLIC "-//W3C//DTD SVG 1.1//EN" "http://www.w3.org/Graphics/SVG/1.1/DTD/svg11.dtd">
<svg version="1.1" id="Capa_1" xmlns="http://www.w3.org/2000/svg" xmlns:xlink="http://www.w3.org/1999/xlink" x="0px" y="0px"
	 width="512px" height="512px" viewBox="0 0 512 512" enable-background="new 0 0 512 512" xml:space="preserve">
<path fill="#76839A" d="M0,18.286v128h36.572V36.572h109.714V0h-128C8.178,0,0,8.178,0,18.286z"/>
<path fill="#76839A" d="M493.715,0H365.714v36.572h109.715v109.714H512v-128C512,8.178,503.822,0,493.715,0L493.715,0z"/>
<path fill="#76839A" d="M475.428,475.428H365.714V512h128.001c10.107,0,18.285-8.179,18.285-18.286v-128h-36.571V475.428z"/>
<path fill="#76839A" d="M36.572,365.714H0v128C0,503.821,8.178,512,18.286,512h128v-36.572H36.572V365.714z"/>
</svg>
